<svg width="637" height="362" viewBox="0 0 637 362" fill="none" xmlns="http://www.w3.org/2000/svg">
<path fill-rule="evenodd" clip-rule="evenodd" d="M767.099 13.6719C826.171 82.566 826.649 194.762 784.253 275.003C746.156 347.108 648.226 347.051 573.591 379.917C512.925 406.631 460.602 448.316 394.335 446.702C305.776 444.544 213.414 432.07 150.594 369.611C69.3823 288.867 -38.7017 170.267 14.0829 68.6361C68.913 -36.9332 231.341 12.1455 348.094 -10.6541C407.703 -22.2945 461.593 -34.1141 522.226 -30.594C608.31 -25.5962 710.971 -51.7889 767.099 13.6719Z" fill="#9473EB"/>
<path fill-rule="evenodd" clip-rule="evenodd" d="M767.099 13.6719C826.171 82.566 826.649 194.762 784.253 275.003C746.156 347.108 648.226 347.051 573.591 379.917C512.925 406.631 460.602 448.316 394.335 446.702C305.776 444.544 213.414 432.07 150.594 369.611C69.3823 288.867 -38.7017 170.267 14.0829 68.6361C68.913 -36.9332 231.341 12.1455 348.094 -10.6541C407.703 -22.2945 461.593 -34.1141 522.226 -30.594C608.31 -25.5962 710.971 -51.7889 767.099 13.6719Z" fill="url(#paint0_linear_4362_339)"/>
<defs>
<linearGradient id="paint0_linear_4362_339" x1="626.515" y1="218.636" x2="-191.283" y2="350.374" gradientUnits="userSpaceOnUse">
<stop stop-color="#5787FF"/>
<stop offset="1" stop-color="#4EDFFF"/>
</linearGradient>
</defs>
</svg>
